<?xml version="1.0"?>
<svg xmlns="http://www.w3.org/2000/svg" height="512px" viewBox="-66 0 512 512.0025" width="512px" class=""><g><path d="m56.976562 282.367188c-13.601562-35.238282-19.589843-72.957032-17.578124-110.675782 5.035156-87.894531 73.640624-163.15625 166.230468-163.15625 91.816406 0 166.398438 67.753906 166.398438 151.125 0 43.175782-26.28125 80.296875-50.859375 121.511719l-23.808594 45.3125c-20.5625 47.019531-28.585937 102.230469 7.511719 176.980469-4.011719-1.621094-8.023438-3.242188-12.03125-4.949219-44.683594-18.125-86.886719-41.839844-125.613282-70.570313-35.605468-26.945312-65.558593-60.636718-88.148437-99.15625zm0 0" fill="#a4c2f7" fill-rule="evenodd" data-original="#A4C2F7" class="active-path" style="fill:#CFD9E8" data-old_color="#a4c2f7"/><path d="m265.15625 471.40625c-33.996094-15.515625-66.222656-34.644531-96.128906-57.054688-33.609375-25.445312-61.933594-57.203124-83.378906-93.5l-21.476563-45.140624c-12.621094-32.796876-18.164063-67.894532-16.265625-102.988282 4.71875-82.523437 70.253906-147.121094 149.195312-147.121094 82.339844 0 149.335938 60.132813 149.335938 134.058594 0 33.082032-18.203125 62.984375-39.253906 97.601563-3.046875 5.011719-6.121094 10.0625-9.175782 15.171875l-24.539062 46.652344-.242188.554687c-22.085937 47.675781-24.976562 102.019531-8.070312 151.765625zm0 0" fill="#d4e1f4" fill-rule="evenodd" data-original="#D4E1F4" class=""/><path d="m166.972656 106.667969c0 11.78125-9.550781 21.332031-21.335937 21.332031-11.78125 0-21.332031-9.550781-21.332031-21.332031 0-11.785157 9.550781-21.335938 21.332031-21.335938 11.785156 0 21.335937 9.550781 21.335937 21.335938zm0 0" fill="#e3e7f2" data-original="#E3E7F2" class=""/><path d="m277.90625 106.667969c0 11.78125-9.554688 21.332031-21.335938 21.332031s-21.332031-9.550781-21.332031-21.332031c0-11.785157 9.550781-21.335938 21.332031-21.335938s21.335938 9.550781 21.335938 21.335938zm0 0" fill="#e3e7f2" data-original="#E3E7F2" class=""/><path d="m124.304688 162.132812h153.601562c4.710938 0 8.53125 3.820313 8.53125 8.535157v17.066406c0 20.367187-8.089844 39.902344-22.492188 54.304687-14.40625 14.402344-33.9375 22.496094-54.308593 22.496094h-17.066407c-42.414062 0-76.800781-34.386718-76.800781-76.800781v-17.066406c0-4.714844 3.820313-8.535157 8.535157-8.535157zm0 0" fill="#7facfa" data-original="#7FACFA" class="" style="fill:#7E8EA8" data-old_color="#7facfa"/><path d="m90.171875 317.515625-51.867187 29.636719c-12.273438 7.015625-27.910157 2.75-34.925782-9.523438-7.015625-12.273437-2.75-27.910156 9.523438-34.925781l51.863281-29.636719" fill="#d4e1f4" data-original="#D4E1F4" class=""/><path d="m285.867188 317.515625 51.863281 29.636719c12.269531 6.992187 27.878906 2.730468 34.894531-9.523438 7.015625-12.273437 2.75-27.910156-9.523438-34.925781l-51.832031-29.636719" fill="#a4c2f7" data-original="#A4C2F7" class="active-path" style="fill:#CFD9E8" data-old_color="#a4c2f7"/><path d="m250.855469 252.5c-12.308594 7.867188-26.613281 12.042969-41.21875 12.035156h-17.066407c-14.605468.007813-28.90625-4.167968-41.214843-12.035156 5.582031-22.945312 26.132812-39.097656 49.75-39.097656 23.613281 0 44.167969 16.152344 49.75 39.097656zm0 0" fill="#e3e7f2" data-original="#E3E7F2" class=""/><path d="m167.226562 427.945312c38.726563 28.730469 80.929688 52.445313 125.613282 70.570313 4.007812 1.707031 8.019531 3.328125 12.03125 4.949219-2.226563-4.601563-4.28125-9.128906-6.171875-13.582032-37.488281-16.636718-73-37.410156-105.871094-61.9375-35.609375-26.945312-65.5625-60.636718-88.148437-99.15625l-1.84375-3.875-19.335938 11.042969c22.035156 35.535157 50.417969 66.714844 83.726562 91.988281zm0 0" fill="#fff" data-original="#FFF"/><path d="m38.304688 347.152344.207031-.109375c-8.023438-4.503907-12.988281-12.988281-12.988281-22.1875s4.964843-17.683594 12.988281-22.1875l42.664062-24.371094c-12.582031-34.085937-18.078125-70.382813-16.152343-106.664063 4.8125-83.976562 67.71875-156.253906 154.070312-162.542968-4.472656-.265625-8.925781-.554688-13.464844-.554688-92.589844 0-161.195312 75.261719-166.230468 163.15625-1.925782 36.285156 3.570312 72.578125 16.152343 106.664063l-42.664062 24.375c-12.117188 7.085937-16.261719 22.609375-9.296875 34.796875 6.964844 12.183594 22.441406 16.492187 34.699218 9.652344zm0 0" fill="#fff" data-original="#FFF"/><path d="m205.628906 17.066406c-35.359375.050782-69.628906 12.25-97.066406 34.550782-36.011719 30.078124-57.964844 73.71875-60.648438 120.558593l-17.066406-.972656c2.960938-51.621094 27.191406-99.707031 66.917969-132.804687 30.492187-24.78125 68.570313-38.335938 107.863281-38.398438zm0 0" fill="#fff" data-original="#FFF"/><g fill="#428dff"><path d="m136.59375 30.71875c2.039062.710938 4.277344.597656 6.238281-.316406 1.90625-.980469 3.4375-2.554688 4.367188-4.488282l.453125-1.535156c.121094-.558594.167968-1.132812.144531-1.707031.046875-.539063.015625-1.082031-.09375-1.613281-.109375-.558594-.261719-1.109375-.453125-1.644532-.84375-2.125-2.492188-3.832031-4.582031-4.753906-1.085938-.425781-2.246094-.640625-3.414063-.632812-3.578125.191406-6.714844 2.464844-8.003906 5.8125-.355469 1.070312-.488281 2.203125-.390625 3.328125.058594 1.113281.347656 2.199219.851563 3.191406 1.058593 1.984375 2.789062 3.53125 4.882812 4.359375zm0 0" data-original="#428DFF" class="" data-old_color="#428DFF" style="fill:#4C5C76"/><path d="m380.5625 159.660156c0-88.039062-78.472656-159.660156-174.933594-159.660156l-17.921875.914062-17.75 2.773438c-2.265625.515625-4.226562 1.917969-5.449219 3.894531-1.222656 1.976563-1.601562 4.359375-1.050781 6.617188 1.105469 4.433593 5.542969 7.183593 10.007813 6.195312l15.984375-2.472656 16.210937-.855469c87.042969 0 157.867188 64 157.867188 142.59375 0 35.472656-19.675782 67.8125-40.523438 102.039063-1.585937 2.621093-3.191406 5.28125-4.789062 7.929687l-6.945313-3.96875c-2.652343-1.601562-5.960937-1.636718-8.648437-.097656s-4.328125 4.414062-4.292969 7.507812c.039063 3.097657 1.753906 5.929688 4.476563 7.402344l14.003906 8.003906h.066406l37.761719 21.574219c5.292969 3.023438 8.570312 8.644531 8.597656 14.742188.027344 6.097656-3.203125 11.746093-8.46875 14.820312-5.269531 3.070313-11.773437 3.097657-17.066406.074219l-51.859375-29.578125c-4.09375-2.335937-9.304688-.914063-11.644532 3.179687-2.335937 4.09375-.914062 9.304688 3.179688 11.644532l9.183594 5.246094c-14.167969 34.988281-26.164063 86.707031 1.902344 157.210937-41.238282-17.273437-80.210938-39.515625-116.054688-66.238281-32.367188-24.574219-59.96875-54.863282-81.441406-89.367188l11.945312-6.828125c2.648438-1.511719 4.289063-4.320312 4.304688-7.371093.011718-3.046876-1.601563-5.875-4.234375-7.410157-2.632813-1.539062-5.886719-1.550781-8.535157-.039062l-51.839843 29.609375c-8.183594 4.675781-18.609375 1.835937-23.285157-6.347656-4.679687-8.183594-1.835937-18.609376 6.347657-23.289063l51.875-29.636719c2.671875-1.5 4.332031-4.316406 4.355469-7.382812.019531-3.066406-1.605469-5.90625-4.257813-7.441406-2.652344-1.535157-5.925781-1.53125-8.574219.011718l-7.429687 4.265625c-10.863281-31.378906-15.523438-64.566406-13.722657-97.722656 2.675782-46.851563 24.628907-90.503906 60.648438-120.585937l6.421875-4.90625c3.535156-2.84375 4.375-7.886719 1.957031-11.722657-1.261718-1.953125-3.285156-3.285156-5.578125-3.664062-2.292969-.382813-4.636719.21875-6.464843 1.65625l-7.132813 5.417969c-39.714844 33.105468-63.929687 81.1875-66.882813 132.804687-1.984374 36.460937 3.355469 72.945313 15.699219 107.308594l-29.378906 16.742187c-16.339844 9.367188-22.003906 30.195313-12.660156 46.546875 9.34375 16.351563 30.164062 22.046875 46.527343 12.726563l25.054688-14.320313c22.617188 36.507813 51.75 68.550781 85.949219 94.53125 39.242187 29.214844 82.066406 53.285157 127.417969 71.628907 3.910156 1.664062 7.835937 3.253906 12.179687 5.011718 3.269531 1.324219 7.019531.5 9.429687-2.074218 2.414063-2.578126 2.992188-6.371094 1.457032-9.550782-35.132813-72.730468-25.710938-123.867187-11.035156-161.023437l27.710937 15.839843c10.59375 6.046876 23.613281 5.984376 34.148437-.164062 10.539063-6.152344 16.992188-17.457031 16.9375-29.660156-.058593-12.199219-6.625-23.441406-17.21875-29.492188l-30.097656-17.152344c1.519532-2.507812 3.039063-5.042968 4.546875-7.527343 22.121094-36.335938 43.011719-70.65625 43.011719-110.914063zm0 0" data-original="#428DFF" class="" data-old_color="#428DFF" style="fill:#4C5C76"/><path d="m115.769531 106.667969c0 16.492187 13.375 29.867187 29.867188 29.867187 16.496093 0 29.867187-13.375 29.867187-29.867187 0-16.496094-13.371094-29.867188-29.867187-29.867188-16.492188 0-29.867188 13.371094-29.867188 29.867188zm29.867188-12.800781c7.070312 0 12.800781 5.730468 12.800781 12.800781 0 7.066406-5.730469 12.796875-12.800781 12.796875-7.066407 0-12.796875-5.730469-12.796875-12.796875 0-7.070313 5.730468-12.800781 12.796875-12.800781zm0 0" data-original="#428DFF" class="" data-old_color="#428DFF" style="fill:#4C5C76"/><path d="m286.4375 106.667969c0-16.496094-13.371094-29.867188-29.867188-29.867188-16.492187 0-29.867187 13.371094-29.867187 29.867188 0 16.492187 13.375 29.867187 29.867187 29.867187 16.496094 0 29.867188-13.375 29.867188-29.867187zm-42.667969 0c0-7.070313 5.734375-12.800781 12.800781-12.800781 7.070313 0 12.800782 5.730468 12.800782 12.800781 0 7.066406-5.730469 12.796875-12.800782 12.796875-7.066406 0-12.800781-5.730469-12.800781-12.796875zm0 0" data-original="#428DFF" class="" data-old_color="#428DFF" style="fill:#4C5C76"/><path d="m107.238281 170.667969v17.066406c.023438 28.902344 14.6875 55.824219 38.953125 71.523437.144532.101563.292969.191407.445313.273438 13.691406 8.835938 29.640625 13.535156 45.933593 13.535156h17.066407c16.296875 0 32.242187-4.699218 45.9375-13.535156.152343-.082031.300781-.171875.441406-.273438 24.265625-15.699218 38.929687-42.621093 38.957031-71.523437v-17.066406c0-9.425781-7.640625-17.066407-17.066406-17.066407h-153.601562c-9.425782 0-17.066407 7.640626-17.066407 17.066407zm85.332031 85.332031c-10.757812-.003906-21.363281-2.574219-30.933593-7.492188 6.492187-16.097656 22.109375-26.636718 39.46875-26.636718 17.355469 0 32.972656 10.539062 39.464843 26.636718-9.570312 4.917969-20.171874 7.488282-30.933593 7.492188zm85.335938-68.265625c-.007812 19.519531-8.398438 38.101563-23.042969 51.011719-9.859375-20.753906-30.78125-33.976563-53.757812-33.976563-22.976563 0-43.902344 13.222657-53.761719 33.976563-14.644531-12.910156-23.035156-31.492188-23.039062-51.011719v-17.066406h153.601562zm0 0" data-original="#428DFF" class="" data-old_color="#428DFF" style="fill:#4C5C76"/></g><script xmlns=""/></g> </svg>
